<?xml version="1.0" encoding="iso-8859-1"?>
<!-- Generator: Adobe Illustrator 17.1.0, SVG Export Plug-In . SVG Version: 6.00 Build 0)  -->
<!DOCTYPE svg PUBLIC "-//W3C//DTD SVG 1.1//EN" "http://www.w3.org/Graphics/SVG/1.1/DTD/svg11.dtd">
<svg version="1.1" id="Capa_1" xmlns="http://www.w3.org/2000/svg" xmlns:xlink="http://www.w3.org/1999/xlink" x="0px" y="0px"
	 viewBox="0 0 397.205 397.205" style="enable-background:new 0 0 397.205 397.205;" xml:space="preserve">
<path style="fill:#231F20;" d="M329.923,34.841C314.983,23.998,293.925,18.5,267.332,18.5h-85.167V0h-35v15.386L41.853,1.666v68.668
	l105.313-13.72v20.315c-35.3,7.938-61.811,39.337-62.224,76.905h-0.023v0.885v242.486h159.493V154.719v-0.885h-0.022
	c-0.413-37.568-26.923-68.967-62.225-76.905V53.5h85.167c53.021,0,53.021,25.087,53.021,34.531c0,20.601-6.367,30.204-16.005,44.741
	c-13.561,20.455-30.438,45.911-30.438,105.894v94.668h35v-94.668c0-49.434,12.511-68.304,24.609-86.554
	c10.734-16.191,21.834-32.933,21.834-64.081C355.353,65.309,346.559,46.915,329.923,34.841z M116.353,218.106v-58.388h3.853h31.147
	v37.724v35.89v100.002h-31.434h-3.566V218.106z"/>
<g>
</g>
<g>
</g>
<g>
</g>
<g>
</g>
<g>
</g>
<g>
</g>
<g>
</g>
<g>
</g>
<g>
</g>
<g>
</g>
<g>
</g>
<g>
</g>
<g>
</g>
<g>
</g>
<g>
</g>
</svg>
