<?xml version="1.0" encoding="iso-8859-1"?>
<!-- Generator: Adobe Illustrator 17.1.0, SVG Export Plug-In . SVG Version: 6.00 Build 0)  -->
<!DOCTYPE svg PUBLIC "-//W3C//DTD SVG 1.1//EN" "http://www.w3.org/Graphics/SVG/1.1/DTD/svg11.dtd">
<svg version="1.1" id="Capa_1" xmlns="http://www.w3.org/2000/svg" xmlns:xlink="http://www.w3.org/1999/xlink" x="0px" y="0px"
	 viewBox="0 0 442 442" style="enable-background:new 0 0 442 442;" xml:space="preserve">
<path d="M376.977,104.209c-0.024-0.245-0.066-0.484-0.108-0.724c-0.014-0.082-0.021-0.165-0.038-0.246
	c-0.058-0.29-0.132-0.574-0.215-0.854c-0.009-0.03-0.014-0.061-0.023-0.091c-0.087-0.285-0.189-0.563-0.3-0.838
	c-0.011-0.026-0.019-0.055-0.03-0.081c-0.108-0.26-0.231-0.513-0.36-0.761c-0.021-0.041-0.038-0.083-0.06-0.125
	c-0.121-0.225-0.255-0.441-0.392-0.655c-0.039-0.062-0.073-0.126-0.114-0.187c-0.132-0.197-0.277-0.383-0.422-0.57
	c-0.056-0.071-0.105-0.147-0.163-0.217c-0.181-0.22-0.374-0.429-0.573-0.633c-0.029-0.029-0.053-0.062-0.082-0.091L278.892,2.929
	c-0.026-0.026-0.055-0.048-0.082-0.074c-0.206-0.202-0.419-0.398-0.642-0.582c-0.07-0.058-0.146-0.107-0.218-0.163
	c-0.186-0.145-0.373-0.29-0.569-0.421c-0.063-0.042-0.129-0.077-0.193-0.117c-0.212-0.136-0.426-0.269-0.649-0.388
	c-0.044-0.024-0.091-0.042-0.135-0.065c-0.245-0.127-0.494-0.248-0.75-0.354c-0.031-0.013-0.063-0.022-0.094-0.034
	c-0.27-0.109-0.544-0.21-0.825-0.296c-0.034-0.01-0.068-0.016-0.102-0.026c-0.277-0.081-0.557-0.155-0.843-0.212
	c-0.084-0.017-0.17-0.024-0.254-0.039c-0.237-0.041-0.474-0.083-0.716-0.107C272.488,0.017,272.155,0,271.82,0H74.973
	c-5.523,0-10,4.477-10,10v422c0,5.523,4.477,10,10,10h292.055c5.522,0,10-4.477,10-10V105.207
	C377.027,104.873,377.01,104.54,376.977,104.209z M281.82,34.143l61.065,61.064H281.82V34.143z M84.973,422V20H261.82v85.207
	c0,5.523,4.478,10,10,10h85.207V422H84.973z"/>
<g>
</g>
<g>
</g>
<g>
</g>
<g>
</g>
<g>
</g>
<g>
</g>
<g>
</g>
<g>
</g>
<g>
</g>
<g>
</g>
<g>
</g>
<g>
</g>
<g>
</g>
<g>
</g>
<g>
</g>
</svg>
