<?xml version="1.0" encoding="iso-8859-1"?>
<!-- Generator: Adobe Illustrator 16.0.0, SVG Export Plug-In . SVG Version: 6.00 Build 0)  -->
<!DOCTYPE svg PUBLIC "-//W3C//DTD SVG 1.1//EN" "http://www.w3.org/Graphics/SVG/1.1/DTD/svg11.dtd">
<svg version="1.1" id="Capa_1" xmlns="http://www.w3.org/2000/svg" xmlns:xlink="http://www.w3.org/1999/xlink" x="0px" y="0px"
	 width="20.208px" height="20.208px" viewBox="0 0 20.208 20.208" style="enable-background:new 0 0 20.208 20.208;"
	 xml:space="preserve">
<g>
	<path d="M9.823,14.07c4.085,0.046,5.326-3.418,3.051-7.102C11.659,5.006,10.033,2.575,10.521,0
		C8.701,3.108,1.67,13.982,9.823,14.07z M8.825,7.909c0.282,0.442,0.494,0.933,0.574,1.487c0.13-0.767-0.375-2.153,0.55-3.718
		c0.14-0.233,0.244-0.449,0.335-0.621c-0.272,1.588,0.637,3.087,1.314,4.297c1.271,2.272,0.578,4.407-1.703,4.378
		C6.766,13.695,7.643,10.516,8.825,7.909z M18.407,17.814l-0.645,2.394l-7.676-2.073l-7.685,1.844L1.822,17.57l3.268-0.784
		l-3.289-0.888l0.645-2.394l7.676,2.073l7.686-1.846l0.578,2.41l-3.267,0.785L18.407,17.814z"/>
</g>
<g>
</g>
<g>
</g>
<g>
</g>
<g>
</g>
<g>
</g>
<g>
</g>
<g>
</g>
<g>
</g>
<g>
</g>
<g>
</g>
<g>
</g>
<g>
</g>
<g>
</g>
<g>
</g>
<g>
</g>
</svg>
