<?xml version="1.0" encoding="iso-8859-1"?>
<!-- Generator: Adobe Illustrator 18.0.0, SVG Export Plug-In . SVG Version: 6.00 Build 0)  -->
<!DOCTYPE svg PUBLIC "-//W3C//DTD SVG 1.1//EN" "http://www.w3.org/Graphics/SVG/1.1/DTD/svg11.dtd">
<svg version="1.1" id="Capa_1" xmlns="http://www.w3.org/2000/svg" xmlns:xlink="http://www.w3.org/1999/xlink" x="0px" y="0px"
	 viewBox="0 0 486.534 486.534" style="enable-background:new 0 0 486.534 486.534;" xml:space="preserve">
<g>
	<path d="M232.146,311.146c-7.936,0-15.277,5.994-17.215,14.506c-0.393,1.741-0.582,3.481-0.582,5.418v13.923
		c0,1.937,0.189,3.678,0.582,5.222c1.938,7.931,8.695,13.93,17.215,13.93c12.569,0,20.306-9.67,20.306-26.696
		C252.451,322.747,245.88,311.146,232.146,311.146z"/>
	<path d="M466.056,398.576l-54.56-244.626c-3.779-16.924-18.79-28.956-36.132-28.956H330.87c3.606-9.923,5.67-20.578,5.67-31.729
		C336.54,41.84,294.708,0,243.283,0s-93.273,41.84-93.273,93.265c0,11.151,2.064,21.806,5.671,31.729h-44.509
		c-17.342,0-32.352,12.033-36.133,28.956L20.48,398.576c-4.774,21.397,0.426,43.794,14.129,60.899
		c13.717,17.105,34.444,27.059,56.369,27.059h304.58c21.923,0,42.65-9.954,56.367-27.059
		C465.628,442.37,470.827,419.974,466.056,398.576z M198.394,93.265c0-24.744,20.145-44.881,44.889-44.881
		c24.744,0,44.872,20.137,44.872,44.881c0,12.379-5.038,23.602-13.166,31.729H211.56
		C203.435,116.867,198.394,105.645,198.394,93.265z M155.128,370.525c0,8.12-6.582,14.704-14.697,14.704
		c-8.125,0-14.707-6.584-14.707-14.704V262.597c0-8.119,6.582-14.704,14.707-14.704c8.115,0,14.697,6.585,14.697,14.704V370.525z
		 M233.109,387.354c-11.026,0-21.674-4.064-28.43-15.278h-0.395l-0.107,1.292c-0.602,6.71-6.224,11.86-12.964,11.86
		c-3.386,0-6.615-1.371-8.964-3.788c-2.361-2.425-3.621-5.694-3.527-9.073c0.127-4.851,0.221-10.206,0.221-15.38v-94.391
		c0-8.119,6.584-14.704,14.696-14.704c8.126,0,14.71,6.585,14.71,14.704v39.265h0.379c5.621-8.127,15.479-13.349,28.635-13.349
		c22.631,0,39.262,18.759,39.076,47.779C276.439,370.336,254.764,387.354,233.109,387.354z M319.829,387.165
		c-7.733,0-14.932-1.055-20.996-2.788c-5.464-1.567-8.727-7.19-7.355-12.726c0.71-2.858,2.569-5.3,5.135-6.733
		c2.568-1.442,5.623-1.765,8.426-0.874c4.805,1.52,10.16,2.614,14.791,2.614c8.898,0,12.569-3.094,12.569-7.93
		c0-4.836-2.899-7.159-13.923-10.836c-19.547-6.576-27.091-17.215-26.887-28.43c0-17.601,15.09-30.949,38.494-30.949
		c6.332,0,12.285,0.828,17.293,2.087c2.553,0.638,4.742,2.26,6.078,4.52c1.34,2.253,1.734,4.954,1.072,7.498l-0.157,0.653
		c-0.677,2.607-2.361,4.844-4.71,6.19c-2.332,1.346-5.103,1.693-7.699,0.969c-3.388-0.946-7.152-1.607-10.916-1.607
		c-7.15,0-11.215,2.898-11.215,7.734c0,4.449,3.67,6.772,15.277,10.836c17.986,6.189,25.532,15.278,25.721,29.209
		C360.827,374.203,346.906,387.165,319.829,387.165z"/>
</g>
<g>
</g>
<g>
</g>
<g>
</g>
<g>
</g>
<g>
</g>
<g>
</g>
<g>
</g>
<g>
</g>
<g>
</g>
<g>
</g>
<g>
</g>
<g>
</g>
<g>
</g>
<g>
</g>
<g>
</g>
</svg>
